<svg width="32" height="32" viewBox="0 0 32 32" fill="none" xmlns="http://www.w3.org/2000/svg">
<path d="M3.5 0C1.56975 0 0 1.56975 0 3.5V28C0 29.9303 1.56975 
31.5 3.5 31.5H15.0869H19.9746H28C29.9303 31.5 31.5 29.9303 31.5 28V3.5C31.5 
1.56975 29.9303 0 28 0H3.5ZM3.5 3.5H28L28.0034 28H19.9746V21.0615H24.1138L24.729 
16.2935H20.002V13.2549C20.002 11.8759 20.3863 10.9443 22.3638 10.9443H24.8623V6.68896C23.6461 
6.56471 22.4249 6.50431 21.2017 6.50781C17.5722 6.50781 15.0869 8.72304 15.0869 
12.79V16.3003H10.9854V21.0684H15.0869V28H3.5V3.5Z" fill="white"/>
</svg>
