<svg width="14" height="16" viewBox="0 0 14 16" fill="none" xmlns="http://www.w3.org/2000/svg">
<path d="M1.90909 0C0.862292 0 0 0.985477 0 2.18182C0 3.37816 0.862292 4.36364 1.90909 
4.36364H12.0909C13.1377 4.36364 14 3.37816 14 2.18182C14 0.985477 13.1377 0 12.0909 
0H1.90909ZM1.90909 1.45455H12.0909C12.4505 1.45455 12.7273 1.77089 12.7273 2.18182C12.7273 
2.59275 12.4505 2.90909 12.0909 2.90909H1.90909C1.54953 2.90909 1.27273 2.59275 1.27273 
2.18182C1.27273 1.77089 1.54953 1.45455 1.90909 1.45455ZM1.90909 5.81818C0.862292 5.81818 0 
6.80366 0 8C0 9.19634 0.862292 10.1818 1.90909 10.1818H12.0909C13.1377 10.1818 14 9.19634 14 
8C14 6.80366 13.1377 5.81818 12.0909 5.81818H1.90909ZM1.90909 7.27273H12.0909C12.4505 7.27273 
12.7273 7.58907 12.7273 8C12.7273 8.41093 12.4505 8.72727 12.0909 8.72727H1.90909C1.54953 
8.72727 1.27273 8.41093 1.27273 8C1.27273 7.58907 1.54953 7.27273 1.90909 7.27273ZM1.90909 
11.6364C0.862292 11.6364 0 12.6218 0 13.8182C0 15.0145 0.862292 16 1.90909 16H12.0909C13.1377 
16 14 15.0145 14 13.8182C14 12.6218 13.1377 11.6364 12.0909 11.6364H1.90909ZM1.90909 
13.0909H12.0909C12.4505 13.0909 12.7273 13.4073 12.7273 13.8182C12.7273 14.2291 12.4505 
14.5455 12.0909 14.5455H1.90909C1.54953 14.5455 1.27273 14.2291 1.27273 13.8182C1.27273 
13.4073 1.54953 13.0909 1.90909 13.0909Z" fill="white"/>
</svg>
