<svg width="29" height="29" viewBox="0 0 29 29" fill="none" xmlns="http://www.w3.org/2000/svg">
<path d="M8.49023 0C3.82983 0 0 3.82471 0 8.49023V20.3848C0 25.0452 
3.82471 28.875 8.49023 28.875H20.3848C25.0452 28.875 28.875 25.0503 
28.875 20.3848V8.49023C28.875 3.82983 25.0503 0 20.3848 0H8.49023ZM8.49023 
2.625H20.3848C23.6301 2.625 26.25 5.24487 26.25 8.49023V20.3848C26.25 23.6301 
23.6301 26.25 20.3848 26.25H8.49023C5.24487 26.25 2.625 23.6301 2.625 
20.3848V8.49023C2.625 5.24487 5.24487 2.625 8.49023 2.625ZM22.1895 5.49609C21.5281 5.49609 
21 6.02417 21 6.68555C21 7.34692 21.5281 7.875 22.1895 7.875C22.8508 7.875 23.3789 
7.34692 23.3789 6.68555C23.3789 6.02417 22.8508 5.49609 22.1895 5.49609ZM14.4375 
6.5625C10.1052 6.5625 6.5625 10.1052 6.5625 14.4375C6.5625 18.7698 10.1052 22.3125 
14.4375 22.3125C18.7698 22.3125 22.3125 18.7698 22.3125 14.4375C22.3125 10.1052 18.7698 
6.5625 14.4375 6.5625ZM14.4375 9.1875C17.3547 9.1875 19.6875 11.5203 19.6875 
14.4375C19.6875 17.3547 17.3547 19.6875 14.4375 19.6875C11.5203 19.6875 9.1875 
17.3547 9.1875 14.4375C9.1875 11.5203 11.5203 9.1875 14.4375 9.1875Z" fill="white"/>
</svg>
