<svg width="16" height="18" viewBox="0 0 16 18" fill="none" xmlns="http://www.w3.org/2000/svg">
<path fill-rule="evenodd" clip-rule="evenodd" d="M8 9.53278L1.70661 17.6239C1.31658 18.1254 
0.682543 18.1254 0.292518 17.6239C-0.0975061 17.1225 -0.0975061 16.3073 0.292518 
15.8059L7.29296 6.80573C7.68298 6.30301 8.31702 6.30301 8.70704 6.80573L15.7075 
15.8059C16.0975 16.3073 16.0975 17.1225 15.7075 17.6239C15.3175 18.1254 14.6834 18.1254 14.2934 
17.6239L8 9.53278ZM8 3.10409L1.70661 11.1952C1.31658 11.6967 0.682543 11.6967 0.292518 
11.1952C-0.0975061 10.6938 -0.0975061 9.87864 0.292518 9.3772L7.29296 0.377042C7.68298 
-0.125681 8.31702 -0.125681 8.70704 0.377042L15.7075 9.3772C16.0975 9.87864 16.0975 10.6938 
15.7075 11.1952C15.3175 11.6967 14.6834 11.6967 14.2934 11.1952L8 3.10409Z" fill="white"/>
</svg>
